<svg style="height: 512px; width: 512px;" xmlns="http://www.w3.org/2000/svg" viewBox="0 0 512 512"><defs><linearGradient x1="0" x2="1" y1="0" y2="1" id="delapouite-checklist-gradient-1"><stop offset="0%" stop-color="#7c6ba7" stop-opacity="1"></stop><stop offset="100%" stop-color="#eaddff" stop-opacity="1"></stop></linearGradient></defs><rect fill="#3c2d63" fill-opacity="1" height="512" width="512" rx="32" ry="32"></rect><g class="" style="" transform="translate(0,0)"><path d="m122.31 84.615-2.85 8.54-11.394 34.185-5.703-5.703L96 115.27 83.27 128l6.367 6.363 26.297 26.297 20.605-61.814 2.845-8.537-17.076-5.695zM151 119v18h242v-18H151zm0 64v18h242v-18H151zm0 64v18h242v-18H151zm-28.69 29.615-2.85 8.54-11.394 34.185-5.703-5.703L96 307.27 83.27 320l6.367 6.363 26.297 26.297 20.605-61.814 2.845-8.537-17.076-5.695zM151 311v18h242v-18H151zm0 64v18h242v-18H151z" fill="url(#delapouite-checklist-gradient-1)" stroke="#251a3d" stroke-opacity="1" stroke-width="3"></path></g></svg>