<svg xmlns="http://www.w3.org/2000/svg" viewBox="0 0 512 512" style="height: 512px; width: 512px;"><defs><linearGradient x1="0" x2="1" y1="0" y2="1" id="delapouite-settings-knobs-gradient-1"><stop offset="0%" stop-color="#9b0303" stop-opacity="1"></stop><stop offset="100%" stop-color="#550505" stop-opacity="1"></stop></linearGradient></defs><path d="M0 0h512v512H0z" fill="#260000" fill-opacity="1"></path><g class="" transform="translate(0,0)" style=""><path d="M87 32v71h18V32H87zm160 0v345h18V32h-18zm160 0v167h18V32h-18zM50 121c-5.14 0-9 3.9-9 9v28c0 5.1 3.86 9 9 9h92c5.1 0 9-3.9 9-9v-28c0-5.1-3.9-9-9-9H50zm37 64v295h18V185H87zm283 32c-5.1 0-9 3.9-9 9v28c0 5.1 3.9 9 9 9h92c5.1 0 9-3.9 9-9v-28c0-5.1-3.9-9-9-9h-92zm37 64v199h18V281h-18zM210 395c-5.1 0-9 3.9-9 9v28c0 5.1 3.9 9 9 9h92c5.1 0 9-3.9 9-9v-28c0-5.1-3.9-9-9-9h-92zm37 64v21h18v-21h-18z" fill="url(#delapouite-settings-knobs-gradient-1)" stroke="#000000" stroke-opacity="1" stroke-width="4"></path></g></svg>