<?xml version="1.0" encoding="UTF-8" standalone="no"?>
<!-- Created with Inkscape (http://www.inkscape.org/) -->

<svg
   version="1.1"
   id="svg1"
   width="500"
   height="264.45291"
   viewBox="0 0 500 264.45291"
   sodipodi:docname="message_box_purple.svg"
   inkscape:version="1.4.2 (ebf0e940d0, 2025-05-08)"
   xmlns:inkscape="http://www.inkscape.org/namespaces/inkscape"
   xmlns:sodipodi="http://sodipodi.sourceforge.net/DTD/sodipodi-0.dtd"
   xmlns="http://www.w3.org/2000/svg"
   xmlns:svg="http://www.w3.org/2000/svg">
  <defs
     id="defs1" />
  <sodipodi:namedview
     id="namedview1"
     pagecolor="#ffffff"
     bordercolor="#000000"
     borderopacity="0.25"
     inkscape:showpageshadow="2"
     inkscape:pageopacity="0.0"
     inkscape:pagecheckerboard="0"
     inkscape:deskcolor="#d1d1d1"
     inkscape:zoom="1.8798828"
     inkscape:cx="263.04831"
     inkscape:cy="110.11325"
     inkscape:window-width="2560"
     inkscape:window-height="1312"
     inkscape:window-x="0"
     inkscape:window-y="61"
     inkscape:window-maximized="1"
     inkscape:current-layer="g1" />
  <g
     inkscape:groupmode="layer"
     inkscape:label="Image"
     id="g1"
     transform="matrix(4.6177687,0,0,4.6177687,-17.622682,-34.484719)">
    <g
       id="g83188"
       style="display:inline;opacity:0.868137">
      <path
         id="rect83187"
         style="opacity:1;fill:#965de2;fill-opacity:1;stroke:none;stroke-width:14.7037"
         d="m 103.25586,9.3398438 0.004,0.5019531 H 61.107422 v 0.3984371 h -1.396484 v 1.66211 H 11.037109 v 5.11914 H 7.2480469 V 20.3125 H 6.2070312 v 40.435547 h 1.8808594 v 1.503906 H 80.589844 v -0.945312 h 1.46289 V 60.748047 H 107.95312 V 20.3125 h -0.36718 v -3.474609 l 3.42773,-3.3125 -5.15625,-2.78125 V 9.8417969 h -1.67187 z" />
    </g>
    <g
       id="g83169"
       transform="translate(0.02077922,-0.00415584)">
      <path
         id="rect83170"
         style="opacity:1;fill:#29025d;fill-opacity:1;stroke:none;stroke-width:8"
         d="m 60.20969,7.552984 -0.892579,0.9804687 h -1.179687 v 1.296875 L 55.133518,13.133062 H 14.494846 v 0.117188 l -0.09766,-0.08399 -9.1777348,8.035156 0.9296875,0.808594 0.15625,-0.136719 v 31.744141 h 0.2929687 l -0.2929687,0.378906 2.6054687,2.007813 v 5.933594 h 1.1289066 v -0.0332 h 36.970703 v 0.304688 h -0.851563 v 1.994141 h 25.5 v -1.097657 h 1.628907 V 61.344 h -0.882813 l 0.02148,-0.01563 h 37.677732 v -1.275391 h -0.0352 V 55.39087 h 0.21485 v -1.951172 l 0.36133,0.140625 -0.36133,-2.011719 V 17.11939 h -0.84766 v -0.283203 h 0.94141 v -5.171875 h -1.79297 l -3.0293,-2.5703124 V 8.5334527 H 62.149143 Z m 45.3457,3.050781 2.37696,2.017578 v 3.816407 l -0.34375,0.304687 h -0.43164 v 9.167969 H 107.53 v 0.724609 h 0.006 l -0.002,0.400391 h -0.004 v 25.625 h 0.0469 v 7.392578 H 74.14719 l 0.0098,-0.0078 -1.535156,0.0078 h -1.142578 v 0.0059 h -0.0078 l -2.353515,1.746094 H 47.408908 V 61.4065 h -37.36914 v -6.552735 l 0.07813,-0.101562 -0.07813,-0.06055 v -0.09961 H 9.9089083 L 7.4342989,52.685796 V 20.885015 l 7.0605471,-6.183594 v 0.02734 h 43.054687 v -0.148437 l 3.574219,-3.931641 h 44.431638 z" />
    </g>
    <g
       id="g83151"
       style="display:inline">
      <path
         id="rect83140"
         style="fill:#6c33b7;fill-opacity:1;stroke:none;stroke-width:15.9463"
         d="m 105.63086,7.46875 c -0.008,0.00507 -0.0242,0.021133 -0.0469,0.044922 h -47.17773 -0.002 v 0.00195 c -0.0071,0.021373 -0.01365,0.1185011 -0.01758,0.2539062 -0.03841,-0.024578 -0.06607,-0.040133 -0.07617,-0.042969 h -0.002 -0.002 L 54.728516,11.847656 H 28.976562 l -1.904296,-1.75 -0.01172,0.03516 h -14.714844 -0.002 c -0.0013,0.0034 -0.0027,0.01282 -0.0039,0.02149 -0.0085,-0.0068 -0.01547,-0.01162 -0.01953,-0.01367 l -0.002,-0.002 h -0.002 l -8.4492185,7.439453 v 0.002 c 6.042e-4,0.0016 0.0022,0.0051 0.00391,0.0078 h -0.019531 c -0.015217,0 -0.027344,0.280805 -0.027344,0.628906 v 17.460937 c 0,0.248993 0.00453,0.464579 0.013672,0.566407 l -0.021484,0.0293 0.03125,0.0293 0.00195,0.002 1.5703125,1.550781 v 18.199219 c -8.021e-4,0.0875 -0.00195,0.179876 -0.00195,0.27539 v 5.265625 c 0,0.06347 -3.624e-4,0.125371 0,0.185547 H 5.40625 v 2.955078 h 41.751953 v -0.470703 h 17.140625 v 0.0098 c 8.6e-5,7.99e-4 -1.67e-4,0.0051 0,0.0059 l 0.002,0.002 v 0.002 l 0.002,0.002 v 0.002 l 0.002,0.002 0.002,0.002 h 0.002 l 0.002,0.002 0.002,0.002 h 0.002 c 7.91e-4,2.3e-4 0.005,0.0018 0.0059,0.002 h 0.002 0.002 7.777343 0.002 0.814453 37.767576 0.002 0.002 0.002 0.0273 c 8.7e-4,0 0.003,8.1e-5 0.004,0 h 0.002 c 7.9e-4,-2.3e-4 0.005,-0.0017 0.006,-0.002 h 0.002 l 0.002,-0.002 0.002,-0.002 h 0.002 v -0.002 l 0.002,-0.002 0.002,-0.002 v -0.002 l 0.002,-0.002 c 1.7e-4,-7.73e-4 -9e-5,-0.0051 0,-0.0059 v -0.002 -14.113282 l 1.23438,-1.216797 h 0.0879 0.002 0.002 c 7.9e-4,-2.3e-4 0.005,-0.0017 0.006,-0.002 h 0.002 l 0.002,-0.002 0.002,-0.002 h 0.002 l 0.002,-0.002 v -0.002 l 0.002,-0.002 0.002,-0.002 v -0.002 c 1.7e-4,-7.74e-4 -8e-5,-0.0051 0,-0.0059 l 0.002,-0.002 V 37.121094 c -9e-5,-7.99e-4 -0.002,-0.0051 -0.002,-0.0059 v -0.002 -0.002 l -0.002,-0.002 -0.002,-0.002 v -0.002 l -0.002,-0.002 h -0.002 l -0.002,-0.002 -0.002,-0.002 c -7.5e-4,-2.99e-4 -0.005,-0.0017 -0.006,-0.002 h -0.002 -0.002 -0.002 -0.44532 v -15.916015 -0.002 c -1.6e-4,-7.67e-4 -0.002,-0.0051 -0.002,-0.0059 v -0.002 l -0.002,-0.002 v -0.002 l -0.002,-0.002 -0.002,-0.002 h -0.002 l -0.002,-0.002 -0.002,-0.002 h -0.002 l -0.002,-0.002 c -8.1e-4,-1.56e-4 -0.005,8e-5 -0.006,0 h -0.002 -0.53125 v -8.205078 c 0,-0.83399 -0.0116,-1.503906 -0.0254,-1.503906 h -0.50586 l -4.82812,-3.9257815 c -7.3e-4,-0.00326 -0.001,-0.00615 -0.002,-0.00781 h -0.002 v -0.00195 h -0.002 -0.008 l -0.0547,-0.044922 h -0.002 -0.002 z M 58.953125,8.9765625 H 105.2793 l 3.1582,2.5683595 c -0.008,0.0219 -0.0137,0.283445 -0.0137,0.605469 v 6.072265 c 0,0.109974 7.3e-4,0.213943 0.002,0.302735 h -0.63476 c -0.0137,0 -0.0254,0.270951 -0.0254,0.607421 v 5.673829 c 10e-6,0.294989 0.008,0.539882 0.0195,0.595703 l -0.01,0.0039 1.19922,0.726562 V 48.59765 l -0.0742,3.38086 0.88086,-0.867188 v 9.654297 h -37.677734 -0.002 c -8.22e-4,2.15e-4 -0.0051,0.0016 -0.0059,0.002 h -0.002 l -0.002,0.002 -0.002,0.002 -0.002,0.002 -0.002,0.002 -0.002,0.002 c -4.52e-4,8.59e-4 -0.0016,0.0049 -0.002,0.0059 -3.18e-4,9.67e-4 -0.0017,0.0048 -0.002,0.0059 -3.35e-4,0.0021 -0.002,0.0075 -0.002,0.0098 v 1.705078 h -7.753906 -0.002 c -8.23e-4,1.58e-4 -0.0051,0.0017 -0.0059,0.002 h -0.002 -0.002 l -0.002,0.002 -0.002,0.002 -0.002,0.002 h -0.002 l -0.002,0.002 v 0.002 c -3.18e-4,7.1e-4 -0.0017,0.0051 -0.002,0.0059 l -0.002,0.002 v 0.002 0.002 1.074218 H 48.693359 L 47.158203,62.166016 V 61.78125 H 9.2617188 c 3.623e-4,-0.06018 0,-0.122081 0,-0.185547 v -5.265625 c 0,-0.438185 -0.00877,-0.810853 -0.021484,-0.953125 L 9.2871094,55.363281 6.9160156,52.78125 V 39.330078 l 0.066406,0.06641 -0.066406,-1.808593 V 19.763672 L 14.357422,13.212891 H 26.640625 27.101562 55.3125 l 0.002,-0.002 v -0.002 c 0.003,-0.0074 0.0072,-0.02737 0.0098,-0.05469 z" />
    </g>
    <rect
       style="opacity:1;fill:#29025d;fill-opacity:1;stroke:none;stroke-width:8.15646"
       id="rect83193"
       width="32.182999"
       height="32.714806"
       x="72.477921"
       y="12.633766"
       rx="1.9" />
  </g>
</svg>
